<svg width="25.000000" height="33.000000" viewBox="0 0 25 33" fill="none" xmlns="http://www.w3.org/2000/svg" xmlns:xlink="http://www.w3.org/1999/xlink">
	<desc>
			Created with Pixso.
	</desc>
	<defs/>
	<path id="Vector" d="M18.94 6.3C18.87 6.19 18.77 6.09 18.65 6.03C18.54 5.96 18.41 5.92 18.27 5.92C18.14 5.92 18.01 5.96 17.89 6.03C17.77 6.09 17.67 6.19 17.61 6.3C16.45 8.28 15.4 10.32 14.46 12.41C12.92 8.24 11.02 4.21 8.77 0.37L8.76 0.37C8.73 0.32 8.7 0.27 8.65 0.23C8.64 0.22 8.63 0.21 8.62 0.2C8.58 0.16 8.53 0.13 8.48 0.1L8.48 0.1C8.43 0.07 8.38 0.05 8.32 0.03C8.31 0.03 8.29 0.02 8.28 0.02C8.16 -0.01 8.04 -0.01 7.92 0.02C7.91 0.02 7.89 0.03 7.88 0.03C7.82 0.05 7.77 0.07 7.72 0.09L7.72 0.1C7.67 0.13 7.62 0.16 7.58 0.2C7.57 0.21 7.56 0.22 7.55 0.23C7.5 0.27 7.47 0.32 7.43 0.37L7.43 0.37C7.13 0.88 0 12.87 0 20.75C0 29.78 4.18 33 8.1 33C9.13 33 10.15 32.76 11.08 32.32C12.02 31.87 12.83 31.23 13.48 30.42C14 31.21 14.72 31.86 15.55 32.31C16.39 32.76 17.32 33 18.27 33C21.52 33 25 30.35 25 22.91C25 16.47 19.18 6.71 18.94 6.3ZM8.1 31.45C7.73 31.33 6.41 29.21 6.41 20.75C6.41 15.94 7.38 9.33 8.1 5.09C8.82 9.33 9.79 15.94 9.79 20.75C9.79 29.22 8.47 31.33 8.1 31.45ZM1.55 20.75C1.55 16.08 4.35 9.62 6.47 5.42C5.75 9.7 4.86 16 4.86 20.75C4.86 24.47 5.11 28.67 6.07 31.05C3.23 29.88 1.55 26.16 1.55 20.75ZM10.13 31.05C11.09 28.67 11.34 24.47 11.34 20.75C11.34 16 10.45 9.7 9.73 5.42C11.29 8.45 12.59 11.6 13.62 14.84L13.62 14.85C13.94 15.89 14.19 16.95 14.39 18.02C14.39 18.04 14.39 18.05 14.4 18.07C14.43 18.29 14.47 18.5 14.5 18.71C14.5 18.74 14.51 18.77 14.51 18.8C14.54 19 14.56 19.19 14.58 19.38C14.58 19.41 14.59 19.45 14.59 19.49C14.61 19.67 14.62 19.85 14.63 20.02C14.63 20.06 14.63 20.1 14.64 20.14C14.65 20.35 14.65 20.55 14.65 20.75C14.65 20.95 14.65 21.15 14.65 21.35C14.57 24.34 13.96 26.84 12.87 28.59C12.86 28.61 12.85 28.63 12.84 28.65C12.22 29.71 11.27 30.56 10.13 31.05L10.13 31.05ZM18.27 31.45C16.67 31.45 15.35 30.62 14.43 29.04C15.38 27.36 16.02 25.08 16.17 22.08C16.17 22.02 16.18 21.95 16.18 21.88C16.19 21.51 16.2 21.14 16.2 20.75C16.2 20.52 16.2 20.29 16.19 20.05C16.18 19.94 16.17 19.83 16.16 19.72C16.15 19.59 16.14 19.46 16.13 19.33C16.12 19.18 16.1 19.03 16.08 18.88C16.07 18.79 16.06 18.7 16.05 18.61C16.02 18.42 16 18.23 15.96 18.04C15.96 17.99 15.95 17.93 15.94 17.88C15.9 17.65 15.86 17.42 15.81 17.19L15.8 17.14C15.64 16.33 15.43 15.5 15.19 14.66C16.09 12.47 17.12 10.34 18.27 8.27C19.8 11.04 23.44 18.14 23.44 22.91C23.44 28.18 21.46 31.45 18.27 31.45Z" fill="#4E9DD3" fill-opacity="1.000000" fill-rule="nonzero"/>
</svg>
