<svg width="34.000000" height="34.000000" viewBox="0 0 34 34" fill="none" xmlns="http://www.w3.org/2000/svg" xmlns:xlink="http://www.w3.org/1999/xlink">
	<desc>
			Created with Pixso.
	</desc>
	<defs/>
	<circle id="Ellipse 14" cx="17.000000" cy="17.000000" r="17.000000" fill="#FFFFFF" fill-opacity="1.000000"/>
	<path id="Vector" d="M20.42 9.35L13.57 9.35C11.24 9.35 9.34 11.24 9.34 13.57L9.34 20.42C9.34 22.75 11.24 24.65 13.57 24.65L20.42 24.65C22.75 24.65 24.64 22.75 24.64 20.42L24.64 13.57C24.64 11.24 22.75 9.35 20.42 9.35ZM23.29 20.42C23.29 22 22 23.29 20.42 23.29L13.57 23.29C11.99 23.29 10.7 22 10.7 20.42L10.7 13.57C10.7 11.99 11.99 10.7 13.57 10.7L20.42 10.7C22 10.7 23.29 11.99 23.29 13.57L23.29 20.42L23.29 20.42Z" fill="#292929" fill-opacity="1.000000" fill-rule="nonzero"/>
	<path id="Vector" d="M17 13.05C14.82 13.05 13.05 14.82 13.05 17C13.05 19.17 14.82 20.94 17 20.94C19.17 20.94 20.94 19.17 20.94 17C20.94 14.82 19.17 13.05 17 13.05ZM17 19.58C15.57 19.58 14.41 18.42 14.41 17C14.41 15.57 15.57 14.41 17 14.41C18.42 14.41 19.58 15.57 19.58 17C19.58 18.42 18.42 19.58 17 19.58Z" fill="#292929" fill-opacity="1.000000" fill-rule="nonzero"/>
	<path id="Vector" d="M21.1 11.9C20.84 11.9 20.58 12.01 20.4 12.19C20.21 12.38 20.11 12.64 20.11 12.9C20.11 13.16 20.21 13.42 20.4 13.6C20.58 13.79 20.84 13.89 21.1 13.89C21.37 13.89 21.62 13.79 21.81 13.6C21.99 13.42 22.1 13.16 22.1 12.9C22.1 12.64 21.99 12.38 21.81 12.19C21.62 12.01 21.37 11.9 21.1 11.9Z" fill="#292929" fill-opacity="1.000000" fill-rule="nonzero"/>
</svg>
