<svg width="34.000000" height="34.000000" viewBox="0 0 34 34" fill="none" xmlns="http://www.w3.org/2000/svg" xmlns:xlink="http://www.w3.org/1999/xlink">
	<desc>
			Created with Pixso.
	</desc>
	<defs/>
	<circle id="Ellipse 12" cx="17.000000" cy="17.000000" r="17.000000" fill="#FFFFFF" fill-opacity="1.000000"/>
	<path id="Vector" d="M16.79 21.98L17.91 21.98C17.91 21.98 18.25 21.95 18.42 21.77C18.58 21.61 18.58 21.3 18.58 21.3C18.58 21.3 18.55 19.88 19.25 19.67C19.94 19.46 20.82 21.05 21.75 21.65C22.46 22.12 22.99 22.01 22.99 22.01L25.49 21.98C25.49 21.98 26.8 21.9 26.18 20.93C26.13 20.85 25.82 20.21 24.32 18.89C22.76 17.51 22.97 17.73 24.85 15.35C26 13.89 26.46 13 26.32 12.62C26.18 12.26 25.33 12.36 25.33 12.36L22.52 12.37C22.52 12.37 22.31 12.35 22.16 12.44C22.01 12.52 21.91 12.72 21.91 12.72C21.91 12.72 21.47 13.85 20.87 14.8C19.62 16.82 19.12 16.93 18.92 16.8C18.44 16.51 18.56 15.63 18.56 15C18.56 13.05 18.87 12.23 17.95 12.02C17.64 11.95 17.42 11.9 16.64 11.9C15.63 11.89 14.79 11.9 14.3 12.12C13.98 12.27 13.74 12.6 13.89 12.62C14.07 12.65 14.49 12.73 14.72 13.02C15.01 13.39 15 14.23 15 14.23C15 14.23 15.16 16.53 14.61 16.82C14.23 17.01 13.71 16.61 12.59 14.78C12.02 13.84 11.59 12.8 11.59 12.8C11.59 12.8 11.51 12.61 11.36 12.51C11.18 12.38 10.93 12.34 10.93 12.34L8.25 12.36C8.25 12.36 7.85 12.37 7.71 12.53C7.58 12.68 7.7 12.99 7.7 12.99C7.7 12.99 9.79 17.63 12.16 19.98C14.33 22.12 16.79 21.98 16.79 21.98Z" fill="#292929" fill-opacity="1.000000" fill-rule="evenodd"/>
</svg>
