<svg width="12.000000" height="7.579102" viewBox="0 0 12 7.5791" fill="none" xmlns="http://www.w3.org/2000/svg" xmlns:xlink="http://www.w3.org/1999/xlink">
	<desc>
			Created with Pixso.
	</desc>
	<defs/>
	<path id="Vector" d="M0.51 3.26L10.22 3.26L7.91 0.9C7.7 0.69 7.7 0.36 7.91 0.15C8.11 -0.06 8.44 -0.06 8.64 0.15L11.84 3.41C12.05 3.62 12.05 3.95 11.84 4.16L8.64 7.42C8.54 7.52 8.41 7.57 8.27 7.57C8.14 7.57 8.01 7.52 7.91 7.42C7.7 7.21 7.7 6.88 7.91 6.67L10.22 4.31L0.51 4.31C0.23 4.31 0 4.08 0 3.78C0 3.49 0.23 3.26 0.51 3.26Z" fill="#000000" fill-opacity="1.000000" fill-rule="evenodd"/>
</svg>
