<svg width="44.819336" height="31.000000" viewBox="0 0 44.8193 31" fill="none" xmlns="http://www.w3.org/2000/svg" xmlns:xlink="http://www.w3.org/1999/xlink">
	<desc>
			Created with Pixso.
	</desc>
	<defs/>
	<path id="Vector" d="M44.66 15.98L38.69 8.88C38.54 8.73 38.32 8.59 38.09 8.59L29.87 8.59L29.87 20.54L0 20.54L0 25.77C0 26.21 0.29 26.51 0.74 26.51L5.07 26.51C5 26.74 5 27.04 5 27.26C5 29.35 6.64 31 8.73 31C10.83 31 12.47 29.35 12.47 27.26C12.47 27.04 12.47 26.74 12.39 26.51L32.94 26.51C32.86 26.74 32.86 27.04 32.86 27.26C32.86 29.35 34.51 31 36.6 31C38.69 31 40.33 29.35 40.33 27.26C40.33 27.04 40.33 26.74 40.26 26.51L44.07 26.51C44.52 26.51 44.81 26.21 44.81 25.77L44.81 16.5L44.81 16.43C44.81 16.28 44.74 16.13 44.66 15.98Z" fill="#FFE9D9" fill-opacity="1.000000" fill-rule="nonzero"/>
	<path id="Vector" d="M10 1.27C12.25 0.37 14.71 0.44 17.1 0.52C18.37 0.59 19.72 0.67 20.91 1.12C22.85 1.86 24.35 3.51 24.87 5.45C24.94 5.67 25.02 5.97 25.17 6.12C25.32 6.34 25.62 6.42 25.84 6.57C26.59 7.09 26.81 8.14 26.44 8.96C26.29 9.18 26.14 9.41 26.14 9.63C26.06 10 26.36 10.3 26.44 10.6C26.66 11.2 26.51 11.95 25.99 12.32C25.77 12.54 25.47 12.62 25.24 12.84C24.94 13.07 24.8 13.44 24.65 13.74C24.27 14.41 23.9 15.08 23.45 15.76C22.93 16.58 22.4 17.4 21.51 17.92C20.91 18.37 20.16 18.52 19.42 18.6C17.18 18.82 14.86 18.82 12.62 18.67C11.65 18.6 10.6 18.6 9.63 18.22C7.54 17.47 6.12 15.46 5.75 13.29C5.67 12.99 5.67 12.62 5.37 12.47C5.15 12.32 4.93 12.39 4.7 12.32C4.25 12.17 4.03 11.57 4.1 11.05C4.18 10.53 4.55 10.15 4.85 9.78C4.18 9.41 3.73 8.59 3.95 7.76C4.1 6.72 4.93 6.87 5.45 6.34C5.9 5.9 5.97 4.85 6.34 4.25C7.17 2.83 8.51 1.79 10 1.27Z" fill="#FFA8A8" fill-opacity="1.000000" fill-rule="nonzero"/>
	<path id="Vector" d="M44.66 15.98L38.69 8.88C38.54 8.73 38.32 8.59 38.09 8.59L29.87 8.59L29.87 20.54L0 20.54L0 25.77C0 26.21 0.29 26.51 0.74 26.51L5.07 26.51C5 26.74 5 27.04 5 27.26C5 29.35 6.64 31 8.73 31C10.83 31 12.47 29.35 12.47 27.26C12.47 27.04 12.47 26.74 12.39 26.51L32.94 26.51C32.86 26.74 32.86 27.04 32.86 27.26C32.86 29.35 34.51 31 36.6 31C38.69 31 40.33 29.35 40.33 27.26C40.33 27.04 40.33 26.74 40.26 26.51L44.07 26.51C44.52 26.51 44.81 26.21 44.81 25.77L44.81 16.5L44.81 16.43C44.81 16.28 44.74 16.13 44.66 15.98ZM42.5 15.68L37.34 15.68L37.34 13.07L40.26 13.07L42.5 15.68ZM8.73 29.5C7.46 29.5 6.49 28.53 6.49 27.26C6.49 26.89 6.57 26.51 6.79 26.14C7.17 25.47 7.91 25.02 8.73 25.02C8.96 25.02 9.11 25.02 9.33 25.09C9.71 25.17 10.08 25.39 10.3 25.69C10.45 25.84 10.53 25.99 10.68 26.14C10.9 26.51 10.98 26.89 10.98 27.26C10.98 28.53 9.93 29.5 8.73 29.5ZM36.6 29.5C35.33 29.5 34.36 28.53 34.36 27.26C34.36 26.89 34.43 26.51 34.66 26.14C35.03 25.47 35.78 25.02 36.6 25.02C36.82 25.02 36.97 25.02 37.2 25.09C37.57 25.17 37.94 25.39 38.17 25.69C38.32 25.84 38.39 25.99 38.54 26.14C38.76 26.51 38.84 26.89 38.84 27.26C38.84 28.53 37.87 29.5 36.6 29.5ZM43.32 25.02L39.59 25.02C39.59 24.94 39.51 24.94 39.51 24.87C39.44 24.79 39.36 24.72 39.29 24.65C39.21 24.57 39.21 24.57 39.14 24.5C39.06 24.42 38.99 24.35 38.91 24.35C38.84 24.27 38.84 24.27 38.76 24.27C38.69 24.2 38.61 24.2 38.54 24.12C38.46 24.12 38.46 24.05 38.39 24.05C38.32 23.97 38.24 23.97 38.17 23.9C38.09 23.9 38.02 23.82 38.02 23.82C37.94 23.82 37.87 23.75 37.72 23.75C37.64 23.75 37.57 23.75 37.57 23.67C37.49 23.67 37.34 23.6 37.27 23.6C37.2 23.6 37.2 23.6 37.12 23.6C36.97 23.6 36.82 23.6 36.67 23.6C36.52 23.6 36.37 23.6 36.22 23.6C36.15 23.6 36.15 23.6 36.07 23.6C36 23.6 35.85 23.6 35.78 23.67C35.7 23.67 35.63 23.67 35.63 23.75C35.55 23.75 35.48 23.82 35.33 23.82C35.25 23.82 35.18 23.9 35.18 23.9C35.1 23.97 35.03 23.97 34.95 24.05C34.88 24.05 34.88 24.12 34.8 24.12C34.73 24.2 34.66 24.2 34.58 24.27C34.51 24.27 34.51 24.35 34.43 24.35C34.36 24.42 34.28 24.5 34.21 24.5C34.13 24.57 34.13 24.57 34.06 24.65C33.98 24.72 33.91 24.79 33.83 24.87C33.83 24.94 33.76 24.94 33.76 25.02L11.72 25.02C11.72 24.94 11.65 24.94 11.65 24.87C11.57 24.79 11.5 24.72 11.42 24.65C11.35 24.57 11.35 24.57 11.27 24.5C11.2 24.42 11.12 24.35 11.05 24.35C10.98 24.27 10.98 24.27 10.9 24.27C10.83 24.2 10.75 24.2 10.68 24.12C10.6 24.12 10.6 24.05 10.53 24.05C10.45 23.97 10.38 23.97 10.3 23.9C10.23 23.9 10.15 23.82 10.15 23.82C10.08 23.82 10 23.75 9.86 23.75C9.78 23.75 9.71 23.75 9.71 23.67C9.63 23.67 9.48 23.6 9.41 23.6C9.33 23.6 9.33 23.6 9.26 23.6C9.11 23.6 8.96 23.6 8.81 23.6C8.66 23.6 8.51 23.6 8.36 23.6C8.29 23.6 8.29 23.6 8.21 23.6C8.14 23.6 7.99 23.6 7.91 23.67C7.84 23.67 7.76 23.67 7.76 23.75C7.69 23.75 7.61 23.82 7.54 23.82C7.46 23.82 7.39 23.9 7.32 23.9C7.24 23.9 7.17 23.97 7.09 23.97C7.02 23.97 6.94 24.05 6.87 24.05C6.79 24.12 6.72 24.12 6.64 24.2C6.57 24.27 6.49 24.27 6.49 24.35C6.42 24.42 6.42 24.42 6.34 24.5C6.27 24.57 6.2 24.57 6.2 24.65C5.97 24.72 5.97 24.79 5.9 24.87C5.82 24.94 5.82 25.02 5.75 25.02L1.49 25.02L1.49 22.03L30.62 22.03C31.07 22.03 31.37 21.73 31.37 21.28L31.37 10.08L37.72 10.08L38.99 11.57L36.6 11.57C36.15 11.57 35.85 11.87 35.85 12.32L35.85 16.43C35.85 16.88 36.15 17.18 36.6 17.18L43.32 17.18L43.32 25.02Z" fill="#000000" fill-opacity="1.000000" fill-rule="nonzero"/>
	<path id="Vector" d="M25.54 6.05C24.87 2.53 21.81 0 18.15 0L12.32 0C8.73 0 5.67 2.53 4.93 6.05C4.03 6.34 3.36 7.17 3.36 8.14C3.36 8.73 3.58 9.26 3.95 9.63C3.58 10 3.36 10.53 3.36 11.12C3.36 12.1 4.03 12.99 4.93 13.22C5.6 16.73 8.66 19.27 12.32 19.27L18.15 19.27C21.73 19.27 24.79 16.73 25.54 13.22C26.44 12.92 27.11 12.1 27.11 11.12C27.11 10.53 26.89 10 26.51 9.63C26.89 9.26 27.11 8.73 27.11 8.14C27.19 7.17 26.51 6.34 25.54 6.05ZM12.32 1.49L18.15 1.49C20.91 1.49 23.23 3.36 23.97 5.97L23.67 5.97L23.52 5.82C23.23 5.37 22.7 5.22 22.18 5.22L21.73 5.22C21.21 5.22 20.69 5.45 20.31 5.82C20.24 5.9 20.09 5.97 19.94 5.97L19.49 5.97C19.34 5.97 19.19 5.9 19.12 5.82C18.74 5.37 18.22 5.22 17.7 5.22L17.25 5.22C16.73 5.22 16.2 5.45 15.83 5.82C15.76 5.9 15.61 5.97 15.46 5.97L15.01 5.97C14.86 5.97 14.71 5.9 14.64 5.82C14.34 5.37 13.81 5.22 13.29 5.22L12.84 5.22C12.32 5.22 11.8 5.45 11.42 5.82C11.35 5.9 11.2 5.97 11.05 5.97L10.6 5.97C10.45 5.97 10.3 5.9 10.23 5.82C9.86 5.37 9.33 5.22 8.81 5.22L8.36 5.22C7.84 5.22 7.32 5.45 6.94 5.82L6.79 5.9L6.57 5.9C7.24 3.36 9.63 1.49 12.32 1.49ZM5.6 7.39L7.39 7.39L7.99 6.79C8.14 6.72 8.21 6.64 8.36 6.64L8.81 6.64C8.96 6.64 9.11 6.72 9.18 6.79C9.56 7.17 10.08 7.39 10.6 7.39L11.05 7.39C11.57 7.39 12.1 7.17 12.47 6.79C12.54 6.72 12.69 6.64 12.84 6.64L13.29 6.64C13.44 6.64 13.59 6.72 13.66 6.79C14.04 7.17 14.56 7.39 15.08 7.39L15.53 7.39C16.06 7.39 16.58 7.17 16.95 6.79C17.03 6.72 17.18 6.64 17.25 6.64L17.7 6.64C17.85 6.64 18 6.72 18.07 6.79C18.45 7.17 18.97 7.39 19.49 7.39L19.94 7.39C20.46 7.39 20.99 7.17 21.36 6.79C21.43 6.72 21.58 6.64 21.73 6.64L22.18 6.64C22.33 6.64 22.48 6.72 22.55 6.79L23.15 7.39L24.94 7.39C25.32 7.39 25.69 7.69 25.69 8.14C25.69 8.59 25.39 8.88 24.94 8.88L5.6 8.88C5.22 8.88 4.85 8.59 4.85 8.14C4.85 7.69 5.22 7.39 5.6 7.39ZM18.22 17.77L12.39 17.77C9.63 17.77 7.32 15.91 6.57 13.29L24.05 13.29C23.3 15.98 20.99 17.77 18.22 17.77ZM24.94 11.87L5.6 11.87C5.22 11.87 4.85 11.57 4.85 11.12C4.85 10.68 5.15 10.38 5.6 10.38L24.87 10.38C25.24 10.38 25.62 10.68 25.62 11.12C25.62 11.57 25.32 11.87 24.94 11.87Z" fill="#000000" fill-opacity="1.000000" fill-rule="nonzero"/>
</svg>
