<svg width="44.200195" height="34.610840" viewBox="0 0 44.2002 34.6108" fill="none" xmlns="http://www.w3.org/2000/svg" xmlns:xlink="http://www.w3.org/1999/xlink">
	<desc>
			Created with Pixso.
	</desc>
	<defs/>
	<path id="Vector" d="M0 25.63L0 8.44C0 8.19 0.16 7.93 0.33 7.85L0.42 7.85L17.01 0.06C17.27 -0.03 17.52 -0.03 17.69 0.06L34.29 7.85L34.37 7.85C34.54 7.93 34.71 8.19 34.71 8.44L34.71 25.63C34.71 25.88 34.54 26.14 34.29 26.31L17.78 34.1C17.61 34.18 17.44 34.18 17.27 34.18L17.18 34.18L17.1 34.18L0.42 26.31C0.16 26.14 0 25.88 0 25.63Z" fill="#E9D4C6" fill-opacity="1.000000" fill-rule="nonzero"/>
	<path id="Vector" d="M0 25.63L0 8.44C0 8.19 0.16 7.93 0.33 7.85L0.42 7.85L17.01 0.06C17.27 -0.03 17.52 -0.03 17.69 0.06L34.29 7.85L34.37 7.85C34.54 7.93 34.71 8.19 34.71 8.44L34.71 25.63C34.71 25.88 34.54 26.14 34.29 26.31L17.78 34.1C17.61 34.18 17.44 34.18 17.27 34.18L17.18 34.18L17.1 34.18L0.42 26.31C0.16 26.14 0 25.88 0 25.63ZM17.35 1.5L2.54 8.44L7.28 10.64L22.1 3.7L17.35 1.5ZM17.35 15.38L32.17 8.44L27.18 6.07L12.36 13.01L17.35 15.38ZM10.58 12.25L25.4 5.31L23.87 4.55L9.06 11.49L10.58 12.25ZM9.82 13.52L8.04 12.68L8.04 19.62L9.82 20.55L9.82 13.52ZM33.1 9.63L18.12 16.65L18.12 32.23L33.1 25.21L33.1 9.63ZM1.52 25.21L16.59 32.15L16.59 16.65L11.43 14.2L11.43 21.65C11.43 22.07 11.09 22.41 10.66 22.41C10.58 22.41 10.41 22.41 10.33 22.33L6.94 20.63C6.68 20.47 6.52 20.3 6.52 19.96L6.52 11.83L1.6 9.54L1.6 25.21L1.52 25.21Z" fill="#000000" fill-opacity="1.000000" fill-rule="nonzero"/>
	<path id="Vector" d="M22.01 23.6C22.1 23.01 22.43 22.5 23.03 22.24C23.11 22.16 23.28 22.16 23.37 22.07C23.45 21.99 23.45 21.82 23.45 21.65C23.45 21.31 23.7 20.97 23.87 20.63C24.64 19.53 25.4 18.35 26.5 17.67C27.18 17.25 27.94 16.99 28.7 16.82C30.65 16.32 32.6 16.15 34.63 16.32C36.57 16.57 38.52 17.25 40.05 18.52C40.64 19.03 41.23 19.62 41.49 20.38C41.66 21.06 41.66 21.9 42.25 22.33C42.5 22.5 42.84 22.58 43.09 22.84C43.69 23.26 43.69 24.28 43.35 24.95C43.26 25.12 43.18 25.29 43.18 25.38C43.09 25.88 43.6 26.22 43.6 26.73C43.6 27.32 42.84 27.66 42.42 28.09C42.08 28.42 41.91 28.85 41.82 29.36C41.57 30.2 41.23 31.13 40.72 31.81C40.22 32.57 39.45 33.25 38.61 33.42C38.1 33.5 37.68 33.5 37.17 33.59C36.91 33.67 36.66 33.76 36.32 33.76C35.81 33.84 35.3 33.84 34.8 33.84C33.44 33.84 32 33.76 30.65 33.76C29.8 33.76 28.95 33.76 28.19 33.5C27.18 33.17 26.33 32.49 25.57 31.73C25.06 31.22 24.64 30.63 24.38 29.86C24.21 29.19 24.13 28.34 23.54 27.92C23.28 27.75 23.03 27.75 22.86 27.58C22.52 27.32 22.35 26.82 22.35 26.39C22.35 25.88 22.69 25.46 22.6 24.95C22.43 24.53 21.93 24.19 22.01 23.6Z" fill="#9EBFFF" fill-opacity="1.000000" fill-rule="nonzero"/>
	<path id="Vector" d="M22.77 21.82C21.93 22.07 21.25 22.92 21.25 23.85C21.25 24.44 21.5 24.87 21.84 25.29C21.5 25.63 21.25 26.14 21.25 26.73C21.25 27.66 21.93 28.51 22.77 28.76C23.45 32.15 26.41 34.61 29.89 34.61L35.56 34.61C39.03 34.61 41.99 32.15 42.67 28.76C43.52 28.51 44.2 27.66 44.2 26.73C44.2 26.14 43.94 25.72 43.6 25.29C43.94 24.95 44.2 24.44 44.2 23.85C44.2 22.92 43.52 22.07 42.67 21.82C41.99 18.43 39.03 15.98 35.56 15.98L29.97 15.98C26.41 15.98 23.45 18.43 22.77 21.82ZM35.56 33.08L29.97 33.08C27.35 33.08 25.06 31.3 24.38 28.76L41.23 28.76C40.47 31.3 38.18 33.08 35.56 33.08ZM42.76 26.65C42.76 27.07 42.42 27.32 42.08 27.32L23.45 27.32C23.03 27.32 22.77 26.99 22.77 26.65C22.77 26.31 23.11 25.97 23.45 25.97L41.99 25.97C42.42 25.97 42.76 26.31 42.76 26.65ZM40.3 23.09L41.99 23.09C42.42 23.09 42.67 23.43 42.67 23.77C42.67 24.11 42.42 24.53 41.99 24.53L23.45 24.53C23.03 24.53 22.77 24.19 22.77 23.85C22.77 23.51 23.11 23.17 23.45 23.17L25.14 23.17L25.74 22.58C25.82 22.5 25.99 22.41 26.08 22.41L26.5 22.41C26.67 22.41 26.75 22.5 26.84 22.58C27.18 22.92 27.68 23.17 28.19 23.17L28.62 23.17C29.12 23.17 29.63 23.01 29.97 22.58C30.05 22.5 30.22 22.41 30.31 22.41L30.73 22.41C30.9 22.41 30.99 22.5 31.07 22.58C31.41 22.92 31.92 23.17 32.43 23.17L32.85 23.17C33.36 23.17 33.87 23.01 34.2 22.58C34.29 22.5 34.46 22.41 34.54 22.41L34.97 22.41C35.14 22.41 35.22 22.5 35.3 22.58C35.64 22.92 36.15 23.17 36.66 23.17L37.25 23.17C37.76 23.17 38.27 23.01 38.61 22.58C38.69 22.5 38.86 22.41 38.95 22.41L39.37 22.41C39.54 22.41 39.62 22.5 39.71 22.58L40.3 23.09ZM35.56 17.42C38.18 17.42 40.47 19.2 41.15 21.74L40.89 21.74L40.72 21.57C40.38 21.23 39.88 20.97 39.37 20.97L38.95 20.97C38.44 20.97 37.93 21.14 37.59 21.57C37.51 21.65 37.34 21.74 37.25 21.74L36.83 21.74C36.66 21.74 36.57 21.65 36.49 21.57C36.15 21.23 35.64 20.97 35.14 20.97L34.71 20.97C34.2 20.97 33.7 21.14 33.36 21.57C33.27 21.65 33.1 21.74 33.02 21.74L32.59 21.74C32.43 21.74 32.34 21.65 32.26 21.57C31.92 21.23 31.41 20.97 30.9 20.97L30.48 20.97C29.97 20.97 29.46 21.14 29.12 21.57C29.04 21.65 28.87 21.74 28.78 21.74L28.36 21.74C28.19 21.74 28.11 21.65 28.02 21.57C27.68 21.23 27.18 20.97 26.67 20.97L26.24 20.97C25.74 20.97 25.23 21.14 24.89 21.57L24.55 21.65L24.3 21.65C24.97 19.2 27.26 17.33 29.89 17.33L35.56 17.33L35.56 17.42Z" fill="#000000" fill-opacity="1.000000" fill-rule="nonzero"/>
</svg>
