<svg width="41.800293" height="39.200195" viewBox="0 0 41.8003 39.2002" fill="none" xmlns="http://www.w3.org/2000/svg" xmlns:xlink="http://www.w3.org/1999/xlink">
	<desc>
			Created with Pixso.
	</desc>
	<defs/>
	<path id="Vector" d="M9.59 18.2C9.69 17.6 10.09 17 10.59 16.8C10.69 16.7 10.89 16.7 10.89 16.6C11 16.5 11 16.3 11 16.1C11 15.7 11.19 15.39 11.39 15C12.19 13.8 13 12.6 14.19 11.89C14.89 11.5 15.69 11.2 16.5 11C18.5 10.5 20.69 10.2 22.79 10.5C24.89 10.7 27 11.5 28.59 12.8C29.29 13.3 29.79 14 30.09 14.8C30.29 15.5 30.29 16.39 30.89 16.89C31.19 17.1 31.5 17.2 31.79 17.39C32.39 17.89 32.39 18.89 32.09 19.6C32 19.8 31.89 19.89 31.89 20.1C31.79 20.6 32.39 21 32.39 21.6C32.39 22.3 31.59 22.6 31.19 23C30.89 23.39 30.69 23.8 30.59 24.3C30.29 25.2 30 26.1 29.5 26.89C29 27.7 28.19 28.39 27.29 28.6C26.79 28.7 26.29 28.7 25.79 28.8C25.5 28.89 25.19 29 24.89 29C24.39 29.1 23.89 29.1 23.29 29.1C21.79 29.1 20.39 29 18.89 29C18 29 17.09 29 16.29 28.7C15.19 28.39 14.29 27.7 13.5 26.8C13 26.2 12.5 25.6 12.29 24.89C12.09 24.2 12.09 23.3 11.39 22.89C11.19 22.7 10.89 22.7 10.59 22.5C10.19 22.2 10.09 21.7 10.09 21.3C10.09 20.8 10.5 20.3 10.39 19.8C10 19.2 9.5 18.89 9.59 18.2Z" fill="#C1ECC0" fill-opacity="1.000000" fill-rule="nonzero"/>
	<path id="Vector" d="M9.7 16.1C8.7 16.39 8 17.29 8 18.39C8 19 8.2 19.6 8.6 20C8.2 20.39 8 21 8 21.6C8 22.7 8.7 23.6 9.7 23.89C10.5 27.7 13.79 30.5 17.7 30.5L24.1 30.5C28 30.5 31.39 27.7 32.1 23.89C33.1 23.6 33.79 22.7 33.79 21.6C33.79 21 33.6 20.39 33.2 20C33.6 19.6 33.79 19 33.79 18.39C33.79 17.29 33.1 16.39 32.1 16.1C31.29 12.29 28 9.5 24.1 9.5L17.7 9.5C13.79 9.5 10.5 12.29 9.7 16.1ZM24.1 28.89L17.7 28.89C14.7 28.89 12.1 26.89 11.39 24.1L30.39 24.1C29.6 26.79 27.1 28.89 24.1 28.89ZM32.2 21.6C32.2 22 31.79 22.39 31.39 22.39L10.39 22.39C10 22.39 9.6 22 9.6 21.6C9.6 21.2 10 20.79 10.39 20.79L31.39 20.79C31.79 20.79 32.2 21.2 32.2 21.6ZM29.39 17.6L31.29 17.6C31.7 17.6 32.1 18 32.1 18.39C32.1 18.79 31.7 19.2 31.29 19.2L10.29 19.2C9.89 19.2 9.5 18.79 9.5 18.39C9.5 18 9.89 17.6 10.29 17.6L12.2 17.6L12.79 17C12.89 16.89 13.1 16.79 13.2 16.79L13.7 16.79C13.89 16.79 14 16.89 14.1 17C14.5 17.39 15.1 17.6 15.6 17.6L16.1 17.6C16.7 17.6 17.2 17.39 17.6 17C17.7 16.89 17.89 16.79 18 16.79L18.5 16.79C18.7 16.79 18.79 16.89 18.89 17C19.29 17.39 19.89 17.6 20.39 17.6L20.89 17.6C21.5 17.6 22 17.39 22.39 17C22.5 16.89 22.7 16.79 22.79 16.79L23.29 16.79C23.5 16.79 23.6 16.89 23.7 17C24.1 17.39 24.7 17.6 25.2 17.6L26 17.6C26.6 17.6 27.1 17.39 27.5 17C27.6 16.89 27.79 16.79 27.89 16.79L28.39 16.79C28.6 16.79 28.7 16.89 28.79 17L29.39 17.6ZM24.1 11.1C27.1 11.1 29.7 13.1 30.39 15.89L30.1 15.89L29.89 15.7C29.5 15.29 28.89 15.1 28.39 15.1L27.89 15.1C27.29 15.1 26.79 15.29 26.39 15.7C26.29 15.89 26.1 16 26 16L25.5 16C25.29 16 25.2 15.89 25.1 15.79C24.7 15.39 24.1 15.2 23.6 15.2L23.1 15.2C22.5 15.2 22 15.39 21.6 15.79C21.5 15.89 21.29 16 21.2 16L20.7 16C20.5 16 20.39 15.89 20.29 15.79C19.89 15.39 19.29 15.2 18.79 15.2L18.29 15.2C17.7 15.2 17.2 15.39 16.79 15.79C16.7 15.89 16.5 16 16.39 16L15.89 16C15.7 16 15.6 15.89 15.5 15.79C15.1 15.39 14.5 15.2 14 15.2L13.5 15.2C12.89 15.2 12.39 15.39 12 15.79L11.7 16L11.39 16C12.2 13.2 14.7 11.2 17.7 11.2L24.1 11.2L24.1 11.1Z" fill="#000000" fill-opacity="1.000000" fill-rule="nonzero"/>
	<path id="Vector" d="M31.2 2.79C31.2 3.2 30.8 3.6 30.39 3.6L29.2 3.6L29.2 4.79C29.2 5.2 28.8 5.6 28.39 5.6C28 5.6 27.6 5.2 27.6 4.79L27.6 3.7L26.39 3.7C26 3.7 25.6 3.29 25.6 2.89C25.6 2.5 25.8 2 26.3 2L27.5 2L27.5 0.79C27.5 0.39 27.89 0 28.3 0C28.7 0 29.1 0.39 29.1 0.79L29.1 2L30.3 2C30.8 2 31.2 2.39 31.2 2.79Z" fill="#000000" fill-opacity="1.000000" fill-rule="nonzero"/>
	<path id="Vector" d="M41.8 26.69C41.8 27.1 41.4 27.5 41 27.5L39.8 27.5L39.8 28.69C39.8 29.1 39.4 29.5 39 29.5C38.6 29.5 38.2 29.1 38.2 28.69L38.2 27.5L37 27.5C36.6 27.5 36.2 27.1 36.2 26.69C36.2 26.29 36.6 25.89 37 25.89L38.2 25.89L38.2 24.69C38.2 24.29 38.6 23.89 39 23.89C39.4 23.89 39.8 24.29 39.8 24.69L39.8 25.89L41 25.89C41.5 25.89 41.8 26.19 41.8 26.69Z" fill="#000000" fill-opacity="1.000000" fill-rule="nonzero"/>
	<path id="Vector" d="M5.7 11.39C5.7 11.79 5.29 12.2 4.89 12.2L3.7 12.2L3.7 13.39C3.7 13.79 3.29 14.2 2.89 14.2C2.5 14.2 2 13.89 2 13.39L2 12.2L0.79 12.2C0.39 12.2 0 11.79 0 11.39C0 11 0.39 10.6 0.79 10.6L2 10.6L2 9.29C2 8.89 2.39 8.5 2.79 8.5C3.2 8.5 3.6 8.89 3.6 9.29L3.6 10.5L4.79 10.5C5.29 10.6 5.7 10.89 5.7 11.39Z" fill="#000000" fill-opacity="1.000000" fill-rule="nonzero"/>
	<path id="Vector" d="M16.39 36.39C16.39 36.8 16 37.2 15.59 37.2L14.39 37.2L14.39 38.39C14.39 38.8 14 39.2 13.59 39.2C13.19 39.2 12.79 38.8 12.79 38.39L12.79 37.2L11.59 37.2C11.19 37.2 10.79 36.8 10.79 36.39C10.79 36 11.19 35.6 11.59 35.6L12.79 35.6L12.79 34.39C12.79 34 13.19 33.6 13.59 33.6C14 33.6 14.39 34 14.39 34.39L14.39 35.6L15.59 35.6C16 35.6 16.39 35.89 16.39 36.39Z" fill="#000000" fill-opacity="1.000000" fill-rule="nonzero"/>
	<path id="Vector" d="M39.79 10.5C39.79 11.27 39.17 11.89 38.39 11.89C37.62 11.89 37 11.27 37 10.5C37 9.72 37.62 9.1 38.39 9.1C39.17 9.1 39.79 9.72 39.79 10.5Z" fill="#000000" fill-opacity="1.000000" fill-rule="evenodd"/>
	<path id="Vector" d="M30.5 36.5C30.5 37.27 29.87 37.89 29.1 37.89C28.32 37.89 27.7 37.27 27.7 36.5C27.7 35.72 28.32 35.1 29.1 35.1C29.87 35.1 30.5 35.72 30.5 36.5Z" fill="#000000" fill-opacity="1.000000" fill-rule="evenodd"/>
	<path id="Vector" d="M3.39 28.1C3.39 28.87 2.77 29.5 2 29.5C1.22 29.5 0.6 28.87 0.6 28.1C0.6 27.32 1.22 26.7 2 26.7C2.77 26.7 3.39 27.32 3.39 28.1Z" fill="#000000" fill-opacity="1.000000" fill-rule="evenodd"/>
	<path id="Vector" d="M14.09 2.39C14.09 3.17 13.47 3.79 12.69 3.79C11.92 3.79 11.29 3.17 11.29 2.39C11.29 1.62 11.92 1 12.69 1C13.47 1 14.09 1.62 14.09 2.39Z" fill="#000000" fill-opacity="1.000000" fill-rule="evenodd"/>
</svg>
