<svg width="37.000000" height="33.000000" viewBox="0 0 37 33" fill="none" xmlns="http://www.w3.org/2000/svg" xmlns:xlink="http://www.w3.org/1999/xlink">
	<desc>
			Created with Pixso.
	</desc>
	<defs>
		<clipPath id="clip12_158">
			<rect id="Frame" rx="0.000000" width="36.000000" height="32.000000" transform="translate(0.500000 0.500000)" fill="white" fill-opacity="0"/>
		</clipPath>
	</defs>
	<rect id="Frame" rx="0.000000" width="36.000000" height="32.000000" transform="translate(0.500000 0.500000)" fill="#FFFFFF" fill-opacity="0"/>
	<g clip-path="url(#clip12_158)">
		<path id="Vector" d="M27.11 13.02C26.55 10.02 23.96 7.87 20.95 7.87L16.04 7.87C13.03 7.87 10.44 10.09 9.88 13.02C9.1 13.24 8.54 13.95 8.54 14.81C8.54 15.31 8.75 15.74 9.03 16.1C8.75 16.46 8.54 16.89 8.54 17.39C8.54 18.25 9.1 18.96 9.88 19.18C10.44 22.19 13.03 24.33 16.04 24.33L20.95 24.33C23.96 24.33 26.55 22.11 27.11 19.18C27.89 18.96 28.45 18.25 28.45 17.39C28.45 16.89 28.24 16.46 27.96 16.1C28.24 15.74 28.45 15.31 28.45 14.81C28.45 13.95 27.89 13.24 27.11 13.02ZM16.04 9.09L20.95 9.09C23.26 9.09 25.22 10.66 25.85 12.88L25.64 12.88L25.5 12.74C25.15 12.38 24.73 12.24 24.31 12.24L23.96 12.24C23.54 12.24 23.12 12.38 22.77 12.74C22.7 12.81 22.56 12.88 22.49 12.88L22.14 12.88C22 12.88 21.93 12.81 21.86 12.74C21.51 12.38 21.09 12.24 20.67 12.24L20.32 12.24C19.9 12.24 19.48 12.38 19.13 12.74C19.06 12.81 18.92 12.88 18.85 12.88L18.5 12.88C18.35 12.88 18.28 12.81 18.21 12.74C17.86 12.38 17.44 12.24 17.02 12.24L16.67 12.24C16.25 12.24 15.83 12.38 15.48 12.74C15.41 12.81 15.27 12.88 15.2 12.88L14.85 12.88C14.71 12.88 14.64 12.81 14.57 12.74C14.22 12.38 13.8 12.24 13.38 12.24L13.03 12.24C12.61 12.24 12.19 12.38 11.84 12.74L11.7 12.88L11.21 12.88C11.77 10.73 13.73 9.09 16.04 9.09ZM10.44 14.17L11.91 14.17L12.4 13.67C12.47 13.6 12.61 13.6 12.75 13.6L13.1 13.6C13.24 13.6 13.31 13.67 13.38 13.74C13.73 14.1 14.15 14.24 14.57 14.24L14.92 14.24C15.34 14.24 15.76 14.1 16.11 13.74C16.18 13.67 16.32 13.6 16.39 13.6L16.81 13.6C16.95 13.6 17.02 13.67 17.09 13.74C17.44 14.1 17.86 14.24 18.28 14.24L18.64 14.24C19.06 14.24 19.48 14.1 19.83 13.74C19.9 13.67 20.04 13.6 20.11 13.6L20.46 13.6C20.6 13.6 20.67 13.67 20.74 13.74C21.09 14.1 21.51 14.24 21.93 14.24L22.42 14.24C22.84 14.24 23.26 14.1 23.61 13.74C23.68 13.6 23.82 13.6 23.89 13.6L24.24 13.6C24.38 13.6 24.45 13.67 24.52 13.74L25.01 14.24L26.62 14.24C26.97 14.24 27.25 14.53 27.25 14.88C27.25 15.24 26.97 15.53 26.62 15.53L10.44 15.53C10.09 15.53 9.81 15.24 9.81 14.88C9.81 14.53 10.09 14.17 10.44 14.17ZM20.95 23.12L16.04 23.12C13.73 23.12 11.77 21.54 11.14 19.32L25.78 19.32C25.22 21.47 23.26 23.12 20.95 23.12ZM26.62 18.03L10.44 18.03C10.09 18.03 9.81 17.75 9.81 17.39C9.81 17.03 10.09 16.75 10.44 16.75L26.62 16.75C26.97 16.75 27.25 17.03 27.25 17.39C27.25 17.75 26.9 18.03 26.62 18.03Z" fill="#4E9DD3" fill-opacity="1.000000" fill-rule="nonzero"/>
		<path id="Vector" d="M8.54 1.43C13.03 1.43 17.3 5.72 17.51 5.94C17.79 6.22 18.14 6.29 18.42 6.29C18.7 6.29 19.05 6.15 19.34 5.94C19.41 5.94 21.51 3.79 24.38 2.5C25.85 1.86 27.18 1.5 28.45 1.5C30.27 1.5 31.88 2.21 33.28 3.65C35.03 5.36 35.73 7.44 35.52 9.8C34.75 18.54 21.65 28.84 18.42 31.28C17.02 30.2 13.8 27.7 10.51 24.48C4.97 18.82 1.82 13.81 1.4 9.73C1.26 7.37 1.96 5.36 3.64 3.57C5.18 2 6.93 1.43 8.54 1.43ZM8.54 0C6.3 0 4.34 0.85 2.66 2.57C0.62 4.72 -0.22 7.08 -0.01 9.87C0.41 14.31 3.64 19.54 9.59 25.41C13.03 28.77 16.39 31.42 17.65 32.35L18.49 33L19.34 32.35C23.26 29.42 36.15 19.11 36.99 9.87C37.27 7.01 36.36 4.58 34.33 2.57C32.65 0.85 30.69 0 28.45 0C26.97 0 25.43 0.35 23.82 1.14C22.14 1.93 20.46 3 18.84 4.5L18.77 4.5L18.42 4.86C17.79 4.15 13.38 0 8.54 0Z" fill="#4E9DD3" fill-opacity="1.000000" fill-rule="nonzero"/>
	</g>
</svg>
