<svg width="43.000000" height="29.741699" viewBox="0 0 43 29.7417" fill="none" xmlns="http://www.w3.org/2000/svg" xmlns:xlink="http://www.w3.org/1999/xlink">
	<desc>
			Created with Pixso.
	</desc>
	<defs/>
	<path id="Vector" d="M42.85 15.33L37.12 8.52C36.98 8.38 36.76 8.24 36.55 8.24L28.66 8.24L28.66 19.7L0 19.7L0 24.72C0 25.15 0.28 25.44 0.71 25.44L4.87 25.44C4.8 25.65 4.8 25.94 4.8 26.15C4.8 28.16 6.37 29.74 8.38 29.74C10.39 29.74 11.96 28.16 11.96 26.15C11.96 25.94 11.96 25.65 11.89 25.44L31.6 25.44C31.53 25.65 31.53 25.94 31.53 26.15C31.53 28.16 33.11 29.74 35.11 29.74C37.12 29.74 38.7 28.16 38.7 26.15C38.7 25.94 38.7 25.65 38.62 25.44L42.28 25.44C42.71 25.44 43 25.15 43 24.72L43 15.83L43 15.76C43 15.62 42.92 15.48 42.85 15.33ZM40.77 15.05L35.83 15.05L35.83 12.54L38.62 12.54L40.77 15.05ZM8.38 28.3C7.16 28.3 6.23 27.37 6.23 26.15C6.23 25.8 6.3 25.44 6.52 25.08C6.87 24.43 7.59 24 8.38 24C8.6 24 8.74 24 8.95 24.08C9.31 24.15 9.67 24.36 9.88 24.65C10.03 24.79 10.1 24.93 10.24 25.08C10.46 25.44 10.53 25.8 10.53 26.15C10.53 27.37 9.53 28.3 8.38 28.3ZM35.11 28.3C33.89 28.3 32.96 27.37 32.96 26.15C32.96 25.8 33.03 25.44 33.25 25.08C33.61 24.43 34.32 24 35.11 24C35.33 24 35.47 24 35.68 24.08C36.04 24.15 36.4 24.36 36.62 24.65C36.76 24.79 36.83 24.93 36.98 25.08C37.19 25.44 37.26 25.8 37.26 26.15C37.26 27.37 36.33 28.3 35.11 28.3ZM41.56 24L37.98 24C37.98 23.93 37.91 23.93 37.91 23.86C37.84 23.79 37.76 23.72 37.69 23.65C37.62 23.57 37.62 23.57 37.55 23.5C37.48 23.43 37.4 23.36 37.33 23.36C37.26 23.29 37.26 23.29 37.19 23.29C37.12 23.22 37.05 23.22 36.98 23.14C36.9 23.14 36.9 23.07 36.83 23.07C36.76 23 36.69 23 36.62 22.93C36.55 22.93 36.47 22.86 36.47 22.86C36.4 22.86 36.33 22.79 36.19 22.79C36.12 22.79 36.04 22.79 36.04 22.71C35.97 22.71 35.83 22.64 35.76 22.64C35.68 22.64 35.68 22.64 35.61 22.64C35.47 22.64 35.33 22.64 35.18 22.64C35.04 22.64 34.9 22.64 34.75 22.64C34.68 22.64 34.68 22.64 34.61 22.64C34.54 22.64 34.39 22.64 34.32 22.71C34.25 22.71 34.18 22.71 34.18 22.79C34.11 22.79 34.04 22.86 33.89 22.86C33.82 22.86 33.75 22.93 33.75 22.93C33.68 23 33.61 23 33.54 23.07C33.46 23.07 33.46 23.14 33.39 23.14C33.32 23.22 33.25 23.22 33.18 23.29C33.11 23.29 33.11 23.36 33.03 23.36C32.96 23.43 32.89 23.5 32.82 23.5C32.75 23.57 32.75 23.57 32.67 23.65C32.6 23.72 32.53 23.79 32.46 23.86C32.46 23.93 32.39 23.93 32.39 24L11.25 24C11.25 23.93 11.17 23.93 11.17 23.86C11.1 23.79 11.03 23.72 10.96 23.65C10.89 23.57 10.89 23.57 10.82 23.5C10.75 23.43 10.67 23.36 10.6 23.36C10.53 23.29 10.53 23.29 10.46 23.29C10.39 23.22 10.32 23.22 10.24 23.14C10.17 23.14 10.17 23.07 10.1 23.07C10.03 23 9.96 23 9.88 22.93C9.81 22.93 9.74 22.86 9.74 22.86C9.67 22.86 9.6 22.79 9.45 22.79C9.38 22.79 9.31 22.79 9.31 22.71C9.24 22.71 9.1 22.64 9.03 22.64C8.95 22.64 8.95 22.64 8.88 22.64C8.74 22.64 8.6 22.64 8.45 22.64C8.31 22.64 8.16 22.64 8.02 22.64C7.95 22.64 7.95 22.64 7.88 22.64C7.81 22.64 7.66 22.64 7.59 22.71C7.52 22.71 7.45 22.71 7.45 22.79C7.38 22.79 7.31 22.86 7.23 22.86C7.16 22.86 7.09 22.93 7.02 22.93C6.95 22.93 6.87 23 6.8 23C6.73 23 6.66 23.07 6.59 23.07C6.52 23.14 6.44 23.14 6.37 23.22C6.3 23.29 6.23 23.29 6.23 23.36C6.16 23.43 6.16 23.43 6.09 23.5C6.02 23.57 5.94 23.57 5.94 23.65C5.73 23.72 5.73 23.79 5.66 23.86C5.59 23.93 5.59 24 5.51 24L1.43 24L1.43 21.14L29.38 21.14C29.81 21.14 30.1 20.85 30.1 20.42L30.1 9.67L36.19 9.67L37.4 11.1L35.11 11.1C34.68 11.1 34.39 11.39 34.39 11.82L34.39 15.76C34.39 16.19 34.68 16.48 35.11 16.48L41.56 16.48L41.56 24Z" fill="#4E9DD3" fill-opacity="1.000000" fill-rule="nonzero"/>
	<path id="Vector" d="M24.5 5.8C23.86 2.43 20.92 0 17.41 0L11.82 0C8.38 0 5.44 2.43 4.72 5.8C3.86 6.09 3.22 6.87 3.22 7.81C3.22 8.38 3.43 8.88 3.79 9.24C3.43 9.6 3.22 10.1 3.22 10.67C3.22 11.61 3.86 12.47 4.72 12.68C5.37 16.05 8.31 18.49 11.82 18.49L17.41 18.49C20.85 18.49 23.79 16.05 24.5 12.68C25.36 12.39 26.01 11.61 26.01 10.67C26.01 10.1 25.79 9.6 25.44 9.24C25.79 8.88 26.01 8.38 26.01 7.81C26.08 6.87 25.44 6.09 24.5 5.8ZM11.82 1.43L17.41 1.43C20.06 1.43 22.28 3.22 23 5.73L22.71 5.73L22.57 5.59C22.28 5.15 21.78 5.01 21.28 5.01L20.85 5.01C20.35 5.01 19.85 5.23 19.49 5.59C19.42 5.66 19.27 5.73 19.13 5.73L18.7 5.73C18.56 5.73 18.41 5.66 18.34 5.59C17.98 5.15 17.48 5.01 16.98 5.01L16.55 5.01C16.05 5.01 15.55 5.23 15.19 5.59C15.12 5.66 14.97 5.73 14.83 5.73L14.4 5.73C14.26 5.73 14.11 5.66 14.04 5.59C13.75 5.15 13.25 5.01 12.75 5.01L12.32 5.01C11.82 5.01 11.32 5.23 10.96 5.59C10.89 5.66 10.74 5.73 10.6 5.73L10.17 5.73C10.03 5.73 9.88 5.66 9.81 5.59C9.45 5.15 8.95 5.01 8.45 5.01L8.02 5.01C7.52 5.01 7.02 5.23 6.66 5.59L6.52 5.66L6.3 5.66C6.95 3.22 9.24 1.43 11.82 1.43ZM5.37 7.09L7.09 7.09L7.66 6.52C7.81 6.44 7.88 6.37 8.02 6.37L8.45 6.37C8.59 6.37 8.74 6.44 8.81 6.52C9.17 6.87 9.67 7.09 10.17 7.09L10.6 7.09C11.1 7.09 11.6 6.87 11.96 6.52C12.03 6.44 12.18 6.37 12.32 6.37L12.75 6.37C12.89 6.37 13.04 6.44 13.11 6.52C13.47 6.87 13.97 7.09 14.47 7.09L14.9 7.09C15.4 7.09 15.9 6.87 16.26 6.52C16.33 6.44 16.48 6.37 16.55 6.37L16.98 6.37C17.12 6.37 17.27 6.44 17.34 6.52C17.7 6.87 18.2 7.09 18.7 7.09L19.13 7.09C19.63 7.09 20.13 6.87 20.49 6.52C20.56 6.44 20.71 6.37 20.85 6.37L21.28 6.37C21.42 6.37 21.57 6.44 21.64 6.52L22.21 7.09L23.93 7.09C24.29 7.09 24.65 7.38 24.65 7.81C24.65 8.24 24.36 8.52 23.93 8.52L5.37 8.52C5.01 8.52 4.65 8.24 4.65 7.81C4.65 7.38 5.01 7.09 5.37 7.09ZM17.48 17.05L11.89 17.05C9.24 17.05 7.02 15.26 6.3 12.75L23.07 12.75C22.35 15.33 20.13 17.05 17.48 17.05ZM23.93 11.39L5.37 11.39C5.01 11.39 4.65 11.1 4.65 10.67C4.65 10.24 4.94 9.96 5.37 9.96L23.86 9.96C24.22 9.96 24.58 10.24 24.58 10.67C24.58 11.1 24.29 11.39 23.93 11.39Z" fill="#4E9DD3" fill-opacity="1.000000" fill-rule="nonzero"/>
</svg>
