<svg width="24.000000" height="24.000000" viewBox="0 0 24 24" fill="none" xmlns="http://www.w3.org/2000/svg" xmlns:xlink="http://www.w3.org/1999/xlink">
	<desc>
			Created with Pixso.
	</desc>
	<defs/>
	<rect id="place" rx="0.000000" width="23.000000" height="23.000000" transform="translate(0.500000 0.500000)" fill="#FFFFFF" fill-opacity="0"/>
	<rect id="Rectangle 402" width="24.000000" height="24.000000" fill="#D9D9D9" fill-opacity="0"/>
	<path id="Vector" d="M12 2C10.13 2 8.37 2.72 7.05 4.05C4.6 6.49 4.29 11.1 6.39 13.89L12 22L17.6 13.9C19.7 11.1 19.39 6.49 16.95 4.05C15.62 2.72 13.87 2 12 2ZM9.5 8.93C9.5 7.53 10.65 6.38 12.06 6.38C13.47 6.38 14.62 7.53 14.62 8.93C14.62 10.34 13.47 11.49 12.06 11.49C10.65 11.49 9.5 10.34 9.5 8.93Z" stroke="#000000" stroke-opacity="1.000000" stroke-width="1.000000" stroke-linejoin="round"/>
</svg>
