<svg width="24.000000" height="24.000000" viewBox="0 0 24 24" fill="none" xmlns="http://www.w3.org/2000/svg" xmlns:xlink="http://www.w3.org/1999/xlink">
	<desc>
			Created with Pixso.
	</desc>
	<defs/>
	<rect id="Rectangle 401" width="24.000000" height="24.000000" fill="#D9D9D9" fill-opacity="0"/>
	<path id="Vector" d="M17.97 6.04L3.33 11.12C2.86 11.28 2.89 11.89 3.38 12.02L7.1 12.99L8.48 16.91C8.63 17.32 9.21 17.45 9.55 17.14L11.47 15.39L15.24 17.86C15.71 18.16 16.36 17.94 16.48 17.44L18.98 6.8C19.1 6.28 18.53 5.85 17.97 6.04ZM16.13 8.4L9.34 13.75C9.27 13.81 9.23 13.88 9.22 13.96L8.95 16.03C8.95 16.1 8.84 16.11 8.82 16.04L7.74 12.95C7.69 12.81 7.75 12.66 7.9 12.58L15.92 8.15C16.11 8.05 16.3 8.27 16.13 8.4Z" fill="#000000" fill-opacity="1.000000" fill-rule="nonzero"/>
</svg>
